<svg xmlns="http://www.w3.org/2000/svg" viewBox="0 0 1536 695" preserveAspectRatio="xMidYMid" width="1536" height="695">
  <g>
    <style type="text/css">
      path {
        stroke-width: 1px;
        stroke-linecap: round;
        stroke-linejoin: round;
        fill: none;
        stroke-dasharray: 1000;
        stroke-dashoffset: 1000;
        animation: dash 5s linear forwards;
      }

      @keyframes dash {
        to {
          stroke-dashoffset: 0;
        }
      }
    </style>
    <path stroke="#eaebec" d="M1.4-2.1l-2.6-0.2l-1.4,2.1l1.1,2.3l2.6,0.2l1.4-2.1L1.4-2.1z M-4-9.5l2.8,7 M-6.4-6.4l3.9,0.7 M-0.2-9.1 l-2.3,3.4 M-5.9-4.6l4.3,0.9 M0.8-7.5l-2.4,3.8 M-10-1.3l7.3,0.9 M-8.6,2.4l2.5-3.2 M-7.8-4.5l1.7,3.7 M-6.8,2.9L-4-0.5 M-5.9-4.6 L-4-0.5 M-6,8.4l4.4-6 M-2.3,9l-1.4-3.8 M-7.6,4.8l3.9,0.4 M-0.9,7.7l-1.4-4.3 M-6.7,3.1l4.4,0.3 M4,9.5l-2.8-7 M6.4,6.5L2.4,5.8 M0.2,9.1l2.3-3.4 M5.9,4.6L1.6,3.7 M-0.8,7.5l2.4-3.8 M10"/>
  </g>
</svg>
